<?xml version="1.0" ?>
<!-- Uploaded to: SVG Repo, www.svgrepo.com, Generator: SVG Repo Mixer Tools -->
<svg width="800px" height="800px" viewBox="0 0 48 48" id="svg5" version="1.1" xml:space="preserve" xmlns="http://www.w3.org/2000/svg" xmlns:svg="http://www.w3.org/2000/svg">
<defs id="defs2"/>
<g id="layer1" transform="translate(-26,-89)">
<path d="m 39.97464,118.5 h 17 c 1.385,0 2.5,1.115 2.5,2.5 0,1.385 -1.115,2.5 -2.5,2.5 h -17 c -1.384999,0 -2.5,-1.115 -2.5,-2.5 0,-1.385 1.115001,-2.5 2.5,-2.5 z" id="path4706" style="color:#000000;fill:#e7e7e7;fill-opacity:1;fill-rule:evenodd;stroke-width:2;stroke-linecap:round;stroke-linejoin:round;stroke-miterlimit:4.1;-inkscape-stroke:none"/>
<path d="m 39.97464,118.5 c -1.384999,0 -2.5,1.115 -2.5,2.5 0,0.039 0.0041,0.0767 0.0059,0.11524 h 15.701172 c 1.384999,0 2.5,-1.115 2.5,-2.50001 0,-0.0387 -0.0041,-0.077 -0.0059,-0.11523 h -5.201172 -6 z" id="path21748" style="color:#000000;fill:#fafafa;fill-opacity:1;fill-rule:evenodd;stroke-width:2;stroke-linecap:round;stroke-linejoin:round;stroke-miterlimit:4.1"/>
<path d="m 42.989136,93.5 h 6.5 c 1.385,0 2.5,1.115 2.5,2.5 0,1.385 -1.115,2.5 -2.5,2.5 h -17 c -1.385,0 -2.5,-1.115 -2.5,-2.5 0,-1.385 1.115,-2.5 2.5,-2.5 h 4.5" id="path4676" style="color:#000000;fill:#e7e7e7;fill-opacity:1;fill-rule:evenodd;stroke-width:2;stroke-linecap:round;stroke-linejoin:round;stroke-miterlimit:4.1"/>
<path d="m 32.489136,93.5 c -1.384999,0 -2.5,1.115001 -2.5,2.5 0,0.03898 0.0041,0.0767 0.0059,0.115234 h 15.701172 c 1.384999,0 2.5,-1.115001 2.5,-2.5 0,-0.03869 -0.0041,-0.07699 -0.0059,-0.115234 h -5.201172 -6 z" id="path20768" style="color:#000000;fill:#fafafa;fill-opacity:1;fill-rule:evenodd;stroke-width:2;stroke-linecap:round;stroke-linejoin:round;stroke-miterlimit:4.1"/>
<path d="m 59.989136,98.5 h 3.5 c 1.385001,0 2.5,1.115 2.5,2.5 0,1.385 -1.114999,2.5 -2.5,2.5 h -17 c -1.384999,0 -2.5,-1.115 -2.5,-2.5 0,-1.385 1.115001,-2.5 2.5,-2.5 h 9.478345" id="path4682" style="color:#000000;fill:#e7e7e7;fill-opacity:1;fill-rule:evenodd;stroke-width:2;stroke-linecap:round;stroke-linejoin:round;stroke-miterlimit:4.1"/>
<path d="m 46.489136,98.5 c -1.384999,0 -2.5,1.115 -2.5,2.5 0,0.039 0.0041,0.0767 0.0059,0.11524 h 15.701172 c 1.384999,0 2.5,-1.115 2.5,-2.500006 0,-0.03869 -0.0041,-0.07699 -0.0059,-0.115234 h -5.201172 -6 z" id="path20917" style="color:#000000;fill:#fafafa;fill-opacity:1;fill-rule:evenodd;stroke-width:2;stroke-linecap:round;stroke-linejoin:round;stroke-miterlimit:4.1"/>
<path d="m 39.97464,108.5 c -1.384999,0 -2.5,-1.115 -2.5,-2.5 0,-1.385 1.115001,-2.5 2.5,-2.5 h 17 c 1.385,0 2.5,1.115 2.5,2.5 0,1.385 -1.115,2.5 -2.5,2.5 z" id="path4688" style="color:#000000;fill:#e7e7e7;fill-opacity:1;fill-rule:evenodd;stroke-width:2;stroke-linecap:round;stroke-linejoin:round;stroke-miterlimit:4.1"/>
<path d="m 39.97464,103.5 c -1.384999,0 -2.5,1.115 -2.5,2.5 0,0.039 0.0041,0.0767 0.0059,0.11524 h 15.701172 c 1.384999,0 2.5,-1.115 2.5,-2.50001 0,-0.0387 -0.0041,-0.077 -0.0059,-0.11523 h -5.201172 -6 z" id="path20919" style="color:#000000;fill:#fafafa;fill-opacity:1;fill-rule:evenodd;stroke-width:2;stroke-linecap:round;stroke-linejoin:round;stroke-miterlimit:4.1"/>
<path d="M 45.989136,108.5 H 56.97464 c 1.385,0 2.5,1.115 2.5,2.5 0,1.385 -1.115,2.5 -2.5,2.5 h -17 c -1.384999,0 -2.5,-1.115 -2.5,-2.5 0,-1.385 1.115001,-2.5 2.5,-2.5 h 2.014496" id="path4694" style="color:#000000;fill:#e7e7e7;fill-opacity:1;fill-rule:evenodd;stroke-width:2;stroke-linecap:round;stroke-linejoin:round;stroke-miterlimit:4.1"/>
<path d="m 39.97464,108.5 c -1.384999,0 -2.5,1.115 -2.5,2.5 0,0.039 0.0041,0.0767 0.0059,0.11524 h 15.701172 c 1.384999,0 2.5,-1.115 2.5,-2.50001 0,-0.0387 -0.0041,-0.077 -0.0059,-0.11523 h -5.201172 -6 z" id="path21744" style="color:#000000;fill:#fafafa;fill-opacity:1;fill-rule:evenodd;stroke-width:2;stroke-linecap:round;stroke-linejoin:round;stroke-miterlimit:4.1"/>
<path d="m 39.97464,113.5 h 17 c 1.385,0 2.5,1.115 2.5,2.5 0,1.385 -1.115,2.5 -2.5,2.5 h -17 c -1.384999,0 -2.5,-1.115 -2.5,-2.5 0,-1.385 1.115001,-2.5 2.5,-2.5 z" id="path4700" style="color:#000000;fill:#e7e7e7;fill-opacity:1;fill-rule:evenodd;stroke-width:2;stroke-linecap:round;stroke-linejoin:round;stroke-miterlimit:4.1"/>
<path d="m 39.97464,113.5 c -1.384999,0 -2.5,1.115 -2.5,2.5 0,0.039 0.0041,0.0767 0.0059,0.11524 h 15.701172 c 1.384999,0 2.5,-1.115 2.5,-2.50001 0,-0.0387 -0.0041,-0.077 -0.0059,-0.11523 h -5.201172 -6 z" id="path21746" style="color:#000000;fill:#fafafa;fill-opacity:1;fill-rule:evenodd;stroke-width:2;stroke-linecap:round;stroke-linejoin:round;stroke-miterlimit:4.1"/>
<path d="m 70.010863,120.76979 c 9e-6,6.4784 -5.251789,11.73021 -11.730205,11.73021 -6.478414,0 -11.730207,-5.25181 -11.730207,-11.73021 0,-6.4784 5.251793,-11.73022 11.730207,-11.73022 6.478416,0 11.730214,5.25182 11.730205,11.73022 z" id="path2386" style="fill:#f2a50c;fill-opacity:1;fill-rule:evenodd;stroke:none;stroke-width:2;stroke-linecap:round;stroke-linejoin:round;stroke-miterlimit:4.1;stroke-opacity:1"/>
<path d="m 58.280152,109.03906 c -6.478409,0 -11.730469,5.25208 -11.730469,11.73047 0,2.61032 0.854926,5.02197 2.296875,6.9707 a 15.071536,13.601026 0 0 0 3.986328,0.5 15.071536,13.601026 0 0 0 15.072266,-13.60156 15.071536,13.601026 0 0 0 -0.01563,-0.59375 c -2.121454,-3.02576 -5.633432,-5.00586 -9.609375,-5.00586 z" id="path9626" style="fill:#f7c63d;fill-opacity:1;fill-rule:evenodd;stroke:none;stroke-width:2;stroke-linecap:round;stroke-linejoin:round;stroke-miterlimit:4.1;stroke-dasharray:none;stroke-opacity:1"/>
<path d="m 58.280149,111.17187 a 0.99785988,1.0021355 0 0 0 -0.998047,1.00196 v 1.58593 c -1.551357,0.42649 -2.720703,1.81605 -2.720703,3.48438 0,2.01171 1.698788,3.62109 3.71875,3.62109 0.986649,0 1.72461,0.73807 1.72461,1.61914 -2e-6,0.88109 -0.737972,1.61523 -1.72461,1.61523 -0.986643,0 -1.722655,-0.73414 -1.722656,-1.61523 a 0.99785988,1.0021355 0 0 0 -0.998047,-1.00195 0.99785988,1.0021355 0 0 0 -0.998047,1.00195 c 3e-6,1.66834 1.169343,3.0579 2.720703,3.48438 v 1.58594 a 0.99785988,1.0021355 0 0 0 0.998047,1.0039 0.99785988,1.0021355 0 0 0 1.000001,-1.0039 v -1.58594 c 1.551358,-0.42648 2.720698,-1.81604 2.720702,-3.48438 0,-2.0117 -1.700741,-3.62109 -3.720703,-3.62109 -0.986652,0 -1.722656,-0.73804 -1.722656,-1.61914 0,-0.88108 0.735999,-1.61524 1.722656,-1.61524 0.986652,0 1.724612,0.73416 1.72461,1.61524 a 0.99785988,1.0021355 0 0 0 0.998046,1.00391 0.99785988,1.0021355 0 0 0 0.998047,-1.00391 c 0,-1.66834 -1.169347,-3.05789 -2.720702,-3.48438 v -1.58593 a 0.99785988,1.0021355 0 0 0 -1.000001,-1.00196 z" id="circle8626" style="color:#000000;fill:#808b9b;fill-opacity:1;fill-rule:evenodd;stroke:none;stroke-width:0.999998;stroke-linecap:round;stroke-linejoin:round;stroke-miterlimit:4.1;stroke-opacity:1;-inkscape-stroke:none"/>
</g>
</svg>