<?xml version="1.0" encoding="iso-8859-1"?>
<!-- Uploaded to: SVG Repo, www.svgrepo.com, Generator: SVG Repo Mixer Tools -->
<svg height="800px" width="800px" version="1.1" id="Layer_1" xmlns="http://www.w3.org/2000/svg" xmlns:xlink="http://www.w3.org/1999/xlink" 
	 viewBox="0 0 502.614 502.614" xml:space="preserve">
<g transform="translate(1 3)">
	<path style="fill:#7EE1E6;" d="M387.267,427.507c14.507,0,25.6,11.093,25.6,25.6c0,14.507-11.093,25.6-25.6,25.6
		c-14.507,0-25.6-11.093-25.6-25.6c0-8.533,4.267-16.213,10.24-20.48C376.174,429.214,381.294,427.507,387.267,427.507z
		 M28.867,171.507c14.507,0,25.6,11.093,25.6,25.6s-11.093,25.6-25.6,25.6s-25.6-11.093-25.6-25.6S14.36,171.507,28.867,171.507z
		 M472.6,171.507c14.507,0,25.6,11.093,25.6,25.6s-11.093,25.6-25.6,25.6c-14.507,0-25.6-11.093-25.6-25.6
		S458.094,171.507,472.6,171.507z M250.734,17.907c14.507,0,25.6,11.093,25.6,25.6s-11.093,25.6-25.6,25.6
		c-14.507,0-25.6-11.093-25.6-25.6S236.227,17.907,250.734,17.907z M129.56,432.627c5.973,4.267,10.24,11.947,10.24,20.48
		c0,14.507-11.093,25.6-25.6,25.6s-25.6-11.093-25.6-25.6c0-14.507,11.093-25.6,25.6-25.6
		C120.174,427.507,125.293,429.214,129.56,432.627z"/>
	<path style="fill:#FFE079;" d="M250.734,154.44c61.44,0,110.933,49.493,110.933,110.933s-49.493,110.933-110.933,110.933
		S139.8,326.814,139.8,265.373S189.294,154.44,250.734,154.44"/>
</g>
<path style="fill:#51565F;" d="M388.267,485.973c-16.213,0-29.867-13.653-29.867-29.867c0-8.533,3.413-15.36,8.533-20.48
	l-39.253-46.933c-0.853-0.853-0.853-1.707-0.853-2.56c0-0.853,0.853-2.56,1.707-3.413c1.707-1.707,4.267-0.853,5.973,0.853
	l39.253,46.933c4.267-2.56,9.387-3.413,14.507-3.413c16.213,0,29.867,13.653,29.867,29.867S404.48,485.973,388.267,485.973z
	 M375.467,439.04c-5.12,4.267-8.533,10.24-8.533,17.067c0,11.947,9.387,21.333,21.333,21.333c11.947,0,21.333-9.387,21.333-21.333
	c0-11.947-9.387-21.333-21.333-21.333C383.147,434.773,378.88,436.48,375.467,439.04L375.467,439.04z M115.2,485.973
	c-16.213,0-29.867-13.653-29.867-29.867c0-16.213,13.653-29.867,29.867-29.867c5.12,0,10.24,1.707,14.507,3.413l39.253-46.933
	c1.707-1.707,4.267-1.707,5.973-0.853c0.853,0.853,1.707,1.707,1.707,3.413c0,0.853,0,1.707-0.853,2.56l-39.253,46.933
	c5.12,5.12,8.533,12.8,8.533,20.48C145.067,472.32,131.414,485.973,115.2,485.973z M115.2,434.773
	c-11.947,0-21.333,9.387-21.333,21.333c0,11.947,9.387,21.333,21.333,21.333s21.333-9.387,21.333-21.333
	C136.534,444.16,127.147,434.773,115.2,434.773z M251.734,383.573c-63.147,0-115.2-52.053-115.2-115.2s52.053-115.2,115.2-115.2
	s115.2,52.053,115.2,115.2S314.88,383.573,251.734,383.573z M251.734,161.707c-58.88,0-106.667,47.787-106.667,106.667
	S192.854,375.04,251.734,375.04S358.4,327.253,358.4,268.373S310.614,161.707,251.734,161.707z M251.734,332.373
	c-2.56,0-4.267-1.707-4.267-4.267v-4.267c-14.507-1.707-25.6-14.507-25.6-29.867c0-2.56,1.707-4.267,4.267-4.267
	s4.267,1.707,4.267,4.267c0,11.947,9.387,21.333,21.333,21.333s21.333-9.387,21.333-21.333s-9.387-21.333-21.333-21.333
	c-16.213,0-29.867-13.653-29.867-29.867c0-15.36,11.093-27.307,25.6-29.867v-4.267c0-2.56,1.707-4.267,4.267-4.267
	S256,206.08,256,208.64v4.267c14.507,1.707,25.6,14.507,25.6,29.867c0,2.56-1.707,4.267-4.267,4.267s-4.267-1.707-4.267-4.267
	c0-11.947-9.387-21.333-21.333-21.333s-21.333,9.387-21.333,21.333c0,11.947,9.387,21.333,21.333,21.333
	c16.213,0,29.867,13.653,29.867,29.867c0,15.36-11.093,27.307-25.6,29.867v4.267C256,330.667,254.294,332.373,251.734,332.373z
	 M388.267,236.8c-1.707,0-3.413-0.853-4.267-2.56c0-0.853,0-0.853,0-1.707c0-1.707,0.853-3.413,2.56-4.267l57.173-22.187
	c0-1.707-0.853-4.267-0.853-5.973c0-16.213,13.653-29.867,29.867-29.867c16.213,0,29.867,13.653,29.867,29.867
	s-13.653,29.867-29.867,29.867c-11.093,0-21.333-6.827-26.453-16.213l-57.173,22.187C389.12,236.8,389.12,236.8,388.267,236.8z
	 M453.12,207.787c2.56,8.533,11.093,13.653,20.48,13.653c11.947,0,21.333-9.387,21.333-21.333s-9.387-21.333-21.333-21.333
	s-21.333,9.387-21.333,21.333C452.267,202.667,452.267,205.227,453.12,207.787C453.12,206.933,453.12,206.933,453.12,207.787
	C453.12,206.933,453.12,206.933,453.12,207.787z M115.2,236.8c-0.853,0-0.853,0-1.707,0L56.32,214.613
	C51.2,224,40.96,230.827,29.867,230.827C13.653,230.827,0,217.173,0,200.96s13.653-29.867,29.867-29.867
	s29.867,13.653,29.867,29.867c0,1.707,0,4.267-0.853,5.973l57.173,22.187c1.707,0.853,2.56,2.56,2.56,4.267c0,0.853,0,0.853,0,1.707
	C118.614,235.947,116.907,236.8,115.2,236.8z M29.867,178.773c-11.947,0-21.333,9.387-21.333,21.333s9.387,21.333,21.333,21.333
	c9.387,0,17.067-5.973,20.48-13.653l0,0l0,0c0.853-2.56,0.853-4.267,0.853-6.827C51.2,188.16,41.814,178.773,29.867,178.773z
	 M251.734,127.573c-2.56,0-4.267-1.707-4.267-4.267V76.373c-14.507-1.707-25.6-14.507-25.6-29.867
	c0-16.213,13.653-29.867,29.867-29.867S281.6,30.293,281.6,46.507c0,15.36-11.093,27.307-25.6,29.867v46.933
	C256,125.867,254.294,127.573,251.734,127.573z M251.734,25.173c-11.947,0-21.333,9.387-21.333,21.333s9.387,21.333,21.333,21.333
	s21.333-9.387,21.333-21.333S263.68,25.173,251.734,25.173z"/>
</svg>