<?xml version="1.0" standalone="no"?>
<!DOCTYPE svg PUBLIC "-//W3C//DTD SVG 20010904//EN"
 "http://www.w3.org/TR/2001/REC-SVG-20010904/DTD/svg10.dtd">
<svg version="1.0" xmlns="http://www.w3.org/2000/svg"
 width="251.000000pt" height="133.000000pt" viewBox="0 0 251.000000 133.000000"
 preserveAspectRatio="xMidYMid meet">
<metadata>
Created by potrace 1.10, written by Peter Selinger 2001-2011
</metadata>
<g transform="translate(0.000000,133.000000) scale(0.100000,-0.100000)"
fill="#000000" stroke="none">
<path d="M492 674 c3 -234 3 -236 27 -255 16 -13 39 -19 72 -19 l49 0 0 41 c0
35 -3 40 -19 34 -38 -12 -42 13 -39 229 l3 206 -48 0 -48 0 3 -236z"/>
<path d="M175 761 c-69 -31 -105 -93 -105 -178 0 -127 117 -216 241 -183 49
13 119 78 119 110 0 17 -7 20 -43 20 -36 0 -47 -5 -65 -30 -18 -23 -30 -30
-58 -30 -73 0 -110 49 -101 134 9 95 99 139 155 76 22 -25 34 -30 69 -30 49 0
52 8 23 56 -42 67 -153 93 -235 55z"/>
<path d="M785 766 c-38 -16 -85 -70 -85 -97 0 -16 7 -19 45 -19 33 0 45 4 45
14 0 39 84 60 112 29 16 -20 31 -53 22 -53 -24 0 -164 -35 -187 -47 -16 -8
-35 -29 -43 -48 -51 -122 112 -206 215 -112 l24 22 -5 -27 c-5 -27 -4 -28 41
-28 l46 0 -3 142 c-4 161 -13 188 -72 219 -40 22 -111 24 -155 5z m183 -180
l-3 -24 -17 23 c-16 21 -16 24 0 46 l17 24 3 -22 c2 -13 2 -34 0 -47z m-42
-38 c-13 -66 -83 -105 -131 -74 -26 17 -30 32 -16 55 7 11 63 30 150 50 2 1 1
-13 -3 -31z m39 -96 c-3 -3 -10 -1 -17 6 -8 8 -7 19 3 44 l14 33 3 -39 c2 -21
1 -41 -3 -44z"/>
<path d="M1062 764 c2 -5 32 -90 68 -187 l65 -177 36 0 36 0 66 179 c37 99 67
183 67 188 0 4 -20 8 -45 8 l-46 0 -38 -119 c-21 -66 -40 -115 -43 -110 -3 5
-20 57 -38 116 l-33 106 -49 4 c-31 2 -48 -1 -46 -8z m155 -235 c8 -8 17 -8
31 0 30 16 32 14 20 -21 -22 -67 -42 -74 -64 -23 -21 51 -15 72 13 44z"/>
<path d="M1532 763 c-34 -17 -65 -53 -76 -90 -7 -22 -4 -23 38 -23 37 0 48 4
57 23 16 29 28 37 62 37 29 0 67 -31 67 -55 0 -8 -10 -17 -22 -19 -129 -25
-164 -37 -190 -66 -53 -58 -29 -145 47 -170 47 -16 112 -4 142 26 l23 23 0
-24 c0 -23 4 -25 46 -25 l46 0 -4 144 c-3 127 -5 148 -24 173 -43 59 -142 81
-212 46z m197 -215 c1 -82 -2 -98 -14 -98 -24 0 -27 22 -10 64 15 35 14 39 -4
64 -17 24 -17 30 -5 47 8 10 14 28 15 39 0 21 1 21 9 1 5 -11 9 -64 9 -117z
m-62 -42 c-36 -55 -129 -58 -135 -5 -4 34 12 45 83 61 60 14 60 14 63 -10 2
-13 -3 -34 -11 -46z"/>
<path d="M1942 553 c-16 -6 -42 -56 -42 -82 0 -77 92 -119 154 -70 36 28 38
105 3 137 -22 21 -81 29 -115 15z m92 -45 c46 -65 -26 -129 -92 -82 -26 18
-29 60 -5 86 23 26 78 24 97 -4z"/>
</g>
</svg>
